<svg xmlns="http://www.w3.org/2000/svg" xmlns:xlink="http://www.w3.org/1999/xlink" width="1000" zoomAndPan="magnify" viewBox="0 0 750 374.999991" height="500" preserveAspectRatio="xMidYMid meet" version="1.2"><defs><clipPath id="379ec32c2d"><path d="M 188.449219 45 L 561.417969 45 L 561.417969 143.703125 L 188.449219 143.703125 Z M 188.449219 45 "/></clipPath></defs><g id="f6e5d93179"><g style="fill:#2a2829;fill-opacity:1;"><g transform="translate(-0.143267, 290.849499)"><path style="stroke:none" d="M 50.90625 -121.859375 C 56.8125 -121.859375 62.128906 -121.019531 66.859375 -119.34375 C 71.585938 -117.675781 75.675781 -115.3125 79.125 -112.25 C 82.570312 -109.195312 85.296875 -105.472656 87.296875 -101.078125 C 89.304688 -96.679688 90.421875 -91.8125 90.640625 -86.46875 L 69.765625 -86.46875 C 69.546875 -91.695312 67.738281 -95.785156 64.34375 -98.734375 C 60.945312 -101.679688 56.46875 -103.15625 50.90625 -103.15625 C 45.125 -103.15625 40.535156 -101.539062 37.140625 -98.3125 C 33.742188 -95.082031 32.046875 -90.632812 32.046875 -84.96875 L 32.046875 -35.21875 C 32.046875 -29.539062 33.6875 -25.085938 36.96875 -21.859375 C 40.25 -18.640625 44.894531 -17.03125 50.90625 -17.03125 C 56.46875 -17.03125 60.945312 -18.554688 64.34375 -21.609375 C 67.738281 -24.671875 69.546875 -28.765625 69.765625 -33.890625 L 90.640625 -33.890625 C 90.078125 -22.984375 86.265625 -14.328125 79.203125 -7.921875 C 72.140625 -1.523438 62.707031 1.671875 50.90625 1.671875 C 44.894531 1.671875 39.441406 0.8125 34.546875 -0.90625 C 29.648438 -2.632812 25.476562 -5.113281 22.03125 -8.34375 C 18.582031 -11.570312 15.910156 -15.46875 14.015625 -20.03125 C 12.128906 -24.59375 11.1875 -29.65625 11.1875 -35.21875 L 11.1875 -84.96875 C 11.1875 -90.53125 12.128906 -95.59375 14.015625 -100.15625 C 15.910156 -104.71875 18.582031 -108.609375 22.03125 -111.828125 C 25.476562 -115.054688 29.648438 -117.535156 34.546875 -119.265625 C 39.441406 -120.992188 44.894531 -121.859375 50.90625 -121.859375 Z M 50.90625 -121.859375 "/></g></g><g style="fill:#2a2829;fill-opacity:1;"><g transform="translate(129.88268, 290.849499)"><path style="stroke:none" d="M 4 0 L 36.390625 -120.1875 L 64.59375 -120.1875 L 96.140625 0 L 74.609375 0 L 67.4375 -30.21875 L 32.546875 -30.21875 L 25.375 0 Z M 36.5625 -46.734375 L 63.4375 -46.734375 L 53.25 -89.640625 C 52.800781 -91.640625 52.378906 -93.640625 51.984375 -95.640625 C 51.597656 -97.648438 51.296875 -99.429688 51.078125 -100.984375 C 50.859375 -102.765625 50.632812 -104.546875 50.40625 -106.328125 L 49.578125 -106.328125 C 49.347656 -104.546875 49.125 -102.765625 48.90625 -100.984375 C 48.6875 -99.429688 48.410156 -97.648438 48.078125 -95.640625 C 47.742188 -93.640625 47.296875 -91.640625 46.734375 -89.640625 Z M 36.5625 -46.734375 "/></g></g><g style="fill:#2a2829;fill-opacity:1;"><g transform="translate(259.908626, 290.849499)"><path style="stroke:none" d="M 49.234375 -19.203125 C 55.242188 -19.203125 60.03125 -20.953125 63.59375 -24.453125 C 67.15625 -27.960938 68.9375 -32.550781 68.9375 -38.21875 L 68.9375 -82.125 C 68.9375 -87.800781 67.15625 -92.363281 63.59375 -95.8125 C 60.03125 -99.257812 55.242188 -100.984375 49.234375 -100.984375 L 33.21875 -100.984375 L 33.21875 -19.203125 Z M 12.1875 0 L 12.1875 -120.1875 L 49.234375 -120.1875 C 55.359375 -120.1875 60.925781 -119.265625 65.9375 -117.421875 C 70.945312 -115.585938 75.226562 -113 78.78125 -109.65625 C 82.34375 -106.320312 85.097656 -102.316406 87.046875 -97.640625 C 88.992188 -92.972656 89.96875 -87.800781 89.96875 -82.125 L 89.96875 -38.21875 C 89.96875 -32.550781 88.992188 -27.351562 87.046875 -22.625 C 85.097656 -17.894531 82.34375 -13.859375 78.78125 -10.515625 C 75.226562 -7.179688 70.945312 -4.59375 65.9375 -2.75 C 60.925781 -0.914062 55.359375 0 49.234375 0 Z M 12.1875 0 "/></g></g><g style="fill:#2a2829;fill-opacity:1;"><g transform="translate(389.93458, 290.849499)"><path style="stroke:none" d="M 49.234375 -19.203125 C 55.242188 -19.203125 60.03125 -20.953125 63.59375 -24.453125 C 67.15625 -27.960938 68.9375 -32.550781 68.9375 -38.21875 L 68.9375 -82.125 C 68.9375 -87.800781 67.15625 -92.363281 63.59375 -95.8125 C 60.03125 -99.257812 55.242188 -100.984375 49.234375 -100.984375 L 33.21875 -100.984375 L 33.21875 -19.203125 Z M 12.1875 0 L 12.1875 -120.1875 L 49.234375 -120.1875 C 55.359375 -120.1875 60.925781 -119.265625 65.9375 -117.421875 C 70.945312 -115.585938 75.226562 -113 78.78125 -109.65625 C 82.34375 -106.320312 85.097656 -102.316406 87.046875 -97.640625 C 88.992188 -92.972656 89.96875 -87.800781 89.96875 -82.125 L 89.96875 -38.21875 C 89.96875 -32.550781 88.992188 -27.351562 87.046875 -22.625 C 85.097656 -17.894531 82.34375 -13.859375 78.78125 -10.515625 C 75.226562 -7.179688 70.945312 -4.59375 65.9375 -2.75 C 60.925781 -0.914062 55.359375 0 49.234375 0 Z M 12.1875 0 "/></g></g><g style="fill:#2a2829;fill-opacity:1;"><g transform="translate(519.960511, 290.849499)"><path style="stroke:none" d="M 13.859375 0 L 13.859375 -18.1875 L 39.5625 -18.1875 L 39.5625 -101.984375 L 13.859375 -101.984375 L 13.859375 -120.1875 L 86.296875 -120.1875 L 86.296875 -101.984375 L 60.59375 -101.984375 L 60.59375 -18.1875 L 86.296875 -18.1875 L 86.296875 0 Z M 13.859375 0 "/></g></g><g style="fill:#2a2829;fill-opacity:1;"><g transform="translate(649.986443, 290.849499)"><path style="stroke:none" d="M 14.359375 0 L 14.359375 -120.1875 L 88.296875 -120.1875 L 88.296875 -101.828125 L 35.21875 -101.828125 L 35.21875 -70.9375 L 82.453125 -70.9375 L 82.453125 -52.578125 L 35.21875 -52.578125 L 35.21875 -18.359375 L 88.296875 -18.359375 L 88.296875 0 Z M 14.359375 0 "/></g></g><g clip-rule="nonzero" clip-path="url(#379ec32c2d)"><path style=" stroke:none;fill-rule:nonzero;fill:#aedf1a;fill-opacity:1;" d="M 561.417969 142 C 556.8125 134.34375 551.589844 127.132812 545.753906 120.371094 C 542.871094 116.941406 539.808594 113.679688 536.679688 110.441406 L 535.519531 109.226562 L 534.3125 108.066406 L 531.875 105.746094 L 530.65625 104.582031 L 529.410156 103.445312 L 526.910156 101.160156 C 513.214844 89.011719 498.210938 78.777344 481.898438 70.464844 C 449.234375 53.671875 412.117188 44.960938 375.039062 45 C 337.964844 45.039062 300.859375 53.714844 268.214844 70.476562 C 251.910156 78.792969 236.90625 89.023438 223.207031 101.160156 L 220.707031 103.445312 L 219.460938 104.582031 L 218.238281 105.746094 L 215.808594 108.066406 C 215.421875 108.453125 214.996094 108.839844 214.597656 109.226562 L 213.433594 110.441406 L 211.113281 112.875 C 210.339844 113.683594 209.566406 114.488281 208.789062 115.328125 C 208.015625 116.167969 207.277344 116.976562 206.542969 117.820312 C 205.808594 118.664062 205.058594 119.492188 204.347656 120.359375 C 198.507812 127.117188 193.277344 134.320312 188.660156 141.964844 L 190.300781 143.609375 C 202.558594 131.632812 215.855469 120.957031 230.191406 111.574219 C 244.472656 102.140625 259.539062 94.203125 275.390625 87.75 C 279.332031 86.140625 283.316406 84.632812 287.34375 83.226562 C 291.367188 81.820312 295.410156 80.496094 299.46875 79.25 C 307.628906 76.800781 315.894531 74.753906 324.261719 73.109375 C 341.03125 69.847656 357.957031 68.21875 375.039062 68.21875 C 392.121094 68.21875 409.046875 69.847656 425.816406 73.109375 C 434.164062 74.753906 442.429688 76.804688 450.613281 79.253906 C 454.691406 80.476562 458.738281 81.804688 462.753906 83.230469 C 466.769531 84.65625 470.757812 86.164062 474.722656 87.753906 C 490.5625 94.203125 505.617188 102.144531 519.886719 111.574219 C 534.226562 120.964844 547.523438 131.65625 559.777344 143.644531 Z M 561.417969 142 "/></g></g></svg>